Coordinates
version=1
nRows=32
nColumns=12
inDegrees=yes

Units are S.I. units (second, meters, Newtons, ...)
Angles are in degrees

endheader
time	SC_y	SC_z	SC_x	AC_y	AC_z	AC_x	GH_y	GH_z	GH_yy	EL_x	PS_y
       0.0              -29.05          10.63           76.0          33.83         -3.753         -4.155         -118.1          21.53          57.96          102.8          5.521
   0.02504              -29.05          10.63          75.99          33.83         -3.754         -4.156         -118.1          21.53          57.94          102.8          5.535
   0.05008              -29.05          10.63          75.98          33.83         -3.755         -4.157         -118.1          21.53          57.92          102.7          5.549
   0.07512              -29.05          10.63          75.97          33.84         -3.756         -4.158         -118.1          21.53          57.89          102.7          5.564
    0.1002              -29.05          10.63          75.96          33.85         -3.758          -4.16         -118.1          21.52          57.87          102.7           5.58
    0.1252              -29.05          10.63          75.95          33.85         -3.759         -4.161         -118.0          21.52          57.84          102.7          5.598
    0.1502              -29.05          10.62          75.93          33.86         -3.761         -4.163         -118.0          21.52          57.81          102.7          5.616
    0.1753              -29.05          10.62          75.92          33.86         -3.762         -4.165         -118.0          21.51          57.78          102.7          5.636
    0.2003              -29.05          10.62          75.91          33.87         -3.764         -4.167         -118.0          21.51          57.74          102.6          5.657
    0.2254              -29.05          10.62          75.89          33.88         -3.766         -4.169         -117.9          21.51          57.71          102.6          5.679
    0.2504              -29.05          10.61          75.87          33.89         -3.768         -4.171         -117.9           21.5          57.67          102.6          5.704
    0.2754              -29.05          10.61          75.85          33.89          -3.77         -4.173         -117.9           21.5          57.62          102.6           5.73
    0.3005              -29.05          10.61          75.83           33.9         -3.773         -4.175         -117.8           21.5          57.58          102.5          5.758
    0.3255              -29.05           10.6          75.81          33.91         -3.775         -4.178         -117.8          21.49          57.53          102.5          5.789
    0.3506              -29.05           10.6          75.79          33.92         -3.778         -4.181         -117.8          21.49          57.48          102.5          5.822
    0.3756              -29.05          10.59          75.76          33.94         -3.781         -4.184         -117.7          21.48          57.42          102.4          5.857
    0.4006              -29.05          10.59          75.73          33.95         -3.784         -4.188         -117.7          21.48          57.36          102.4          5.896
    0.4257              -29.05          10.58           75.7          33.96         -3.788         -4.191         -117.6          21.47          57.29          102.4          5.938
    0.4507              -29.05          10.58          75.67          33.98         -3.792         -4.196         -117.5          21.46          57.21          102.3          5.985
    0.4758              -29.05          10.57          75.63          33.99         -3.796           -4.2         -117.5          21.46          57.13          102.3          6.035
    0.5008              -29.05          10.57          75.59          34.01         -3.801         -4.205         -117.4          21.45          57.04          102.2          6.091
    0.5258              -29.05          10.56          75.55          34.03         -3.806          -4.21         -117.3          21.44          56.95          102.2          6.152
    0.5509              -29.05          10.55           75.5          34.05         -3.812         -4.216         -117.2          21.43          56.84          102.1          6.219
    0.5759              -29.05          10.54          75.45          34.08         -3.818         -4.223         -117.2          21.42          56.72          102.0          6.294
     0.601              -29.05          10.53          75.39          34.11         -3.825          -4.23         -117.0           21.4          56.58          101.9          6.377
     0.626              -29.05          10.52          75.32          34.14         -3.833         -4.239         -116.9          21.39          56.43          101.8           6.47
     0.651              -29.06          10.51          75.25          34.17         -3.842         -4.248         -116.8          21.38          56.27          101.7          6.574
    0.6761              -29.06          10.49          75.17          34.21         -3.851         -4.258         -116.6          21.36          56.08          101.6          6.691
    0.7011              -29.06          10.48          75.07          34.25         -3.863          -4.27         -116.5          21.34          55.87          101.5          6.823
    0.7262              -29.06          10.46          74.96           34.3         -3.875         -4.283         -116.3          21.32          55.62          101.3          6.974
    0.7512              -29.06          10.44          74.84          34.36          -3.89         -4.298         -116.1          21.29          55.35          101.2          7.145
    0.7762              -29.06          10.41           74.7          34.42         -3.906         -4.316         -115.8          21.26          55.03          101.0          7.341
